<mxfile host="app.diagrams.net" modified="2021-06-24T17:28:28.158Z" agent="5.0 (Windows)" etag="sXZkW36GStdH2BT8aS9J" version="14.8.1" type="github">
  <diagram id="Kj3eJn6oS48Wpw1woIf9" name="Page-1">
    <mxGraphModel dx="1038" dy="564" grid="1" gridSize="10" guides="1" tooltips="1" connect="1" arrows="1" fold="1" page="1" pageScale="1" pageWidth="850" pageHeight="1100" math="0" shadow="0">
      <root>
        <mxCell id="0" />
        <mxCell id="1" parent="0" />
        <mxCell id="XzK_W4y70HyBF9f4uGyq-3" style="edgeStyle=orthogonalEdgeStyle;rounded=0;orthogonalLoop=1;jettySize=auto;html=1;" edge="1" parent="1" source="XzK_W4y70HyBF9f4uGyq-1" target="XzK_W4y70HyBF9f4uGyq-2">
          <mxGeometry relative="1" as="geometry" />
        </mxCell>
        <mxCell id="XzK_W4y70HyBF9f4uGyq-1" value="RunEditImpl" style="rounded=1;whiteSpace=wrap;html=1;" vertex="1" parent="1">
          <mxGeometry x="200" y="120" width="80" height="40" as="geometry" />
        </mxCell>
        <mxCell id="XzK_W4y70HyBF9f4uGyq-7" value="" style="edgeStyle=orthogonalEdgeStyle;rounded=0;orthogonalLoop=1;jettySize=auto;html=1;" edge="1" parent="1" source="XzK_W4y70HyBF9f4uGyq-2" target="XzK_W4y70HyBF9f4uGyq-6">
          <mxGeometry relative="1" as="geometry" />
        </mxCell>
        <mxCell id="XzK_W4y70HyBF9f4uGyq-2" value="IEditImpl" style="rounded=1;whiteSpace=wrap;html=1;" vertex="1" parent="1">
          <mxGeometry x="400" y="160" width="80" height="40" as="geometry" />
        </mxCell>
        <mxCell id="XzK_W4y70HyBF9f4uGyq-6" value="save data" style="rounded=1;whiteSpace=wrap;html=1;" vertex="1" parent="1">
          <mxGeometry x="530" y="160" width="80" height="40" as="geometry" />
        </mxCell>
      </root>
    </mxGraphModel>
  </diagram>
</mxfile>
